<?xml version="1.0" encoding="utf-8"?>
<svg version="1.1" xmlns:xlink="http://www.w3.org/1999/xlink" width="14px" height="13px" xmlns="http://www.w3.org/2000/svg">
  <g transform="matrix(1 0 0 1 -448 -284 )">
    <path d="M 8.67865334375 11.92533334375  C 8.64659181027157 11.3674405364009  8.18939644176997 10.9288587152532  7.63065334375 10.92  L 1.93198665625 10.92  C 1.37682560881221 10.9200978788766  0.926830559980243 11.3701722720588  0.926830559980243 11.925333328125  C 0.926830559980243 12.4804943841912  1.37682560881221 12.9305687773734  1.93198665625 12.93066665625  L 7.67332 12.93066665625  C 8.22554801760429 12.9234846419635  8.67147131229791 12.477561361131  8.67865334375 11.92533334375  Z M 13.92132 6.47733334375  C 13.8891046683639 5.91741851251173  13.4287944885623 5.47808449259498  12.86798665625 5.472  L 1.93465334375 5.472  C 1.37949229631221 5.47209787887662  0.929497247480242 5.92217227205883  0.929497247480242 6.477333328125  C 0.929497247480242 7.03249438419117  1.37949229631221 7.48256877737338  1.93465334375 7.48266665625  L 12.91598665625 7.48266665625  C 13.4682146738543 7.47548464196349  13.9141379685479 7.02956136113105  13.92132 6.47733334375  Z M 12.87332 0.274666656250002  L 12.86798665625 0.274666656250002  L 1.93465334375 0.274666656250002  C 1.37942306950048 0.274666656250002  0.929319999999999 0.724769725750479  0.929319999999999 1.28  C 0.929319999999999 1.83523027424953  1.37942306950048 2.28533334375  1.93465334375 2.28533334375  L 12.91598665625 2.28533334375  C 13.4629051815044 2.27372764855504  13.9002129946513 1.82704164871373  13.9002129946513 1.28  C 13.9002129946513 0.724644731132599  13.4500085969924 0.274440333473722  12.894653328125 0.274440333473722  C 12.8875416185033 0.274440333473722  12.8804301089788 0.274515778644288  12.87332 0.274666656250002  Z " fill-rule="nonzero" fill="#ffffff" stroke="none" transform="matrix(1 0 0 1 448 284 )" />
  </g>
</svg>