<?xml version="1.0" standalone="no"?><!DOCTYPE svg PUBLIC "-//W3C//DTD SVG 1.1//EN" "http://www.w3.org/Graphics/SVG/1.1/DTD/svg11.dtd"><svg t="1590136692314" class="icon" viewBox="0 0 1024 1024" version="1.1" xmlns="http://www.w3.org/2000/svg" p-id="12625" xmlns:xlink="http://www.w3.org/1999/xlink" width="32" height="32"><defs><style type="text/css"></style></defs><path d="M311.872 512m-47.552 0a47.552 47.552 0 1 0 95.104 0 47.552 47.552 0 1 0-95.104 0Z" fill="#44434A" p-id="12626"></path><path d="M512 512m-47.552 0a47.552 47.552 0 1 0 95.104 0 47.552 47.552 0 1 0-95.104 0Z" fill="#44434A" p-id="12627"></path><path d="M712.128 512m-47.552 0a47.552 47.552 0 1 0 95.104 0 47.552 47.552 0 1 0-95.104 0Z" fill="#44434A" p-id="12628"></path><path d="M512 128a384 384 0 1 1-203.392 709.632 64.384 64.384 0 0 0-61.056-3.776L128.384 889.6V533.76v-5.952C128 522.624 128 517.12 128 512a384.448 384.448 0 0 1 384-384m0-64a448 448 0 0 0-448 448c0 6.4 0 12.288 0.448 18.368v376.512a52.8 52.8 0 0 0 75.328 48l134.912-62.912A448 448 0 1 0 512 64z" fill="#44434A" p-id="12629"></path></svg>