<?xml version="1.0" standalone="no"?><!DOCTYPE svg PUBLIC "-//W3C//DTD SVG 1.1//EN" "http://www.w3.org/Graphics/SVG/1.1/DTD/svg11.dtd"><svg t="1589814409668" class="icon" viewBox="0 0 1024 1024" version="1.1" xmlns="http://www.w3.org/2000/svg" p-id="2453" xmlns:xlink="http://www.w3.org/1999/xlink" width="32" height="32"><defs><style type="text/css"></style></defs><path d="M 548.571 164.571 H 640 c 21.943 0 36.571 14.629 36.571 36.572 v 128 c 0 69.486 -58.514 128 -128 128 s -128 -58.514 -128 -128 V 292.57 c 0 -69.485 58.515 -128 128 -128 Z" fill="#1296db" p-id="2454"></path><path d="M 512 512 c -120.686 0 -219.429 -98.743 -219.429 -219.429 V 256 c 0 -120.686 98.743 -219.429 219.429 -219.429 h 146.286 c 40.228 0 73.143 32.915 73.143 73.143 v 182.857 C 731.429 413.257 632.686 512 512 512 Z m 0 -420.571 c -91.429 0 -164.571 73.142 -164.571 164.571 v 36.571 C 347.429 384 420.57 457.143 512 457.143 S 676.571 384 676.571 292.57 V 109.714 c 0 -10.971 -7.314 -18.285 -18.285 -18.285 H 512 Z" fill="#1296db" p-id="2455"></path><path d="M 314.514 713.143 h 457.143 c 58.514 0 109.714 32.914 135.314 87.771 l 18.286 40.229 c 18.286 47.543 0 98.743 -47.543 120.686 c -10.971 3.657 -25.6 7.314 -36.571 7.314 H 263.314 c -54.857 0 -98.743 -43.886 -98.743 -98.743 c 0 -10.971 0 -18.286 3.658 -29.257 l 7.314 -21.943 c 18.286 -62.171 73.143 -106.057 138.971 -106.057 Z" fill="#1296db" p-id="2456"></path><path d="M 815.543 987.429 H 208.457 c -87.771 0 -160.914 -73.143 -160.914 -160.915 c 0 -14.628 3.657 -29.257 7.314 -40.228 l 10.972 -40.229 c 25.6 -95.086 113.371 -160.914 212.114 -160.914 h 468.114 c 98.743 0 186.514 65.828 212.114 160.914 l 10.972 40.229 c 10.971 40.228 7.314 84.114 -14.629 120.685 c -21.943 36.572 -54.857 62.172 -95.085 73.143 c -14.629 3.657 -29.258 7.315 -43.886 7.315 Z M 277.943 640 c -73.143 0 -138.972 51.2 -157.257 120.686 l -10.972 40.228 c -3.657 7.315 -3.657 18.286 -3.657 29.257 c 0 58.515 47.543 106.058 106.057 106.058 H 819.2 c 10.971 0 18.286 0 29.257 -3.658 c 25.6 -7.314 47.543 -25.6 62.172 -47.542 c 14.628 -25.6 18.285 -51.2 10.971 -80.458 l -10.971 -40.228 C 892.343 691.2 826.514 643.657 753.37 643.657 H 277.943 Z" fill="#1296db" p-id="2457"></path><path d="M 438.857 585.143 c 0 40.228 32.914 73.143 73.143 73.143 s 73.143 -32.915 73.143 -73.143" fill="#1296db" p-id="2458"></path><path d="M 482.743 621.714 H 537.6 l 25.6 153.6 c 0 7.315 0 10.972 -3.657 14.629 l -36.572 36.571 c -7.314 7.315 -18.285 7.315 -25.6 0 L 460.8 789.943 c -3.657 -3.657 -7.314 -10.972 -3.657 -14.629 l 25.6 -153.6 Z" fill="#1296db" p-id="2459"></path></svg>