<?xml version="1.0" standalone="no"?><!DOCTYPE svg PUBLIC "-//W3C//DTD SVG 1.1//EN" "http://www.w3.org/Graphics/SVG/1.1/DTD/svg11.dtd"><svg t="1589814455843" class="icon" viewBox="0 0 1024 1024" version="1.1" xmlns="http://www.w3.org/2000/svg" p-id="4407" xmlns:xlink="http://www.w3.org/1999/xlink" width="32" height="32"><defs><style type="text/css"></style></defs><path d="M532.544723 375.90982L334.614479 597.486598l176.035305 44.665674 290.764784-88.455551L628.882452 381.164605z" fill="#1DBAFF" p-id="4408"></path><path d="M362.64 224.396846c0 112.977883 91.958742 204.936624 204.936625 204.936624C680.554507 429.33347 772.513249 337.374728 772.513249 224.396846 772.513249 111.418963 680.554507 19.460221 567.576625 19.460221 454.598742 19.460221 362.64 110.543166 362.64 224.396846" fill="#1890FF" p-id="4409"></path><path d="M314.471135 225.272643c0-105.971502 85.828159-191.799661 191.799662-191.799661 105.971502 0 191.799661 85.828159 191.799661 191.799661s-85.828159 191.799661-191.799661 191.799662c-105.095705 0-191.799661-85.828159-191.799662-191.799662z m289.013189 195.302852c71.815398-35.907699 120.860061-109.474693 120.86006-195.302852 0-119.984263-98.089325-218.073588-218.073587-218.073587s-218.073588 98.089325-218.073588 218.073587c0 85.828159 49.044662 159.395152 120.860061 195.302852l-108.598895 109.474692c-5.254785 5.254785-5.254785 13.136963 0 18.391749 2.627393 2.627393 6.130583 3.50319 9.633773 3.50319 3.50319 0 7.00638-0.875798 9.633773-3.50319l116.481073-116.481073c21.894939 7.882178 46.41727 12.261166 70.9396 12.261165s49.044662-4.378988 70.939601-12.261165l116.481073 116.481073c2.627393 2.627393 6.130583 3.50319 9.633773 3.50319 3.50319 0 7.00638-0.875798 9.633773-3.50319 5.254785-5.254785 5.254785-13.136963 0-18.391749l-110.35049-109.474692z" fill="#003491" p-id="4410"></path><path d="M905.634475 762.136535c-10.50957 0-21.894939-17.515951-21.894938-42.038281 0-23.646534 11.385368-42.038282 21.894938-42.038282s21.894939 17.515951 21.894939 42.038282c-0.875798 23.646534-12.261166 42.038282-21.894939 42.038281z m-51.672055 123.487454l-338.933648 105.971502v-325.796685l338.933648-105.971502v325.796685z m-365.207574 105.095704l-329.299875-105.095704v-325.796685l330.175672 105.095705v325.796684z m-377.46874-228.583158c-10.50957 0-21.894939-17.515951-21.894938-42.038281 0-23.646534 11.385368-42.038282 21.894938-42.038282s21.894939 17.515951 21.894939 42.038282c0 23.646534-11.385368 42.038282-21.894939 42.038281z m794.348369-110.35049c-9.633773 0-17.515951 3.50319-24.522331 9.633773v-119.108465c0-4.378988-1.751595-7.882178-5.254785-10.509571-3.50319-2.627393-7.882178-3.50319-11.385368-1.751595l-362.580182 112.102085-352.070611-112.977882c-4.378988-0.875798-8.757975-0.875798-11.385368 1.751595-3.50319 2.627393-5.254785 7.00638-5.254785 11.385368v117.35687c-6.130583-4.378988-14.012761-7.00638-21.894939-7.00638-27.149724 0-48.168865 29.777116-48.168865 68.312208s21.019141 68.312208 48.168865 68.312208c7.882178 0 14.888558-2.627393 21.894939-7.00638v114.729478c0 6.130583 3.50319 10.50957 8.757975 12.261165l356.449599 113.85368c0.875798 0 2.627393 0.875798 4.378988 0.875798s2.627393 0 3.50319-0.875798l365.207574-113.85368c5.254785-1.751595 9.633773-7.00638 9.633773-12.261165v-118.232668c7.00638 6.130583 15.764356 9.633773 24.522331 9.633773 27.149724 0 48.168865-29.777116 48.168865-68.312208-0.875798-38.535092-21.894939-68.312208-48.168865-68.312209z" fill="#003491" p-id="4411"></path></svg>