<?xml version="1.0" encoding="utf-8"?>
<svg version="1.1" xmlns:xlink="http://www.w3.org/1999/xlink" width="35px" height="35px" xmlns="http://www.w3.org/2000/svg">
  <g transform="matrix(1 0 0 1 -432 -450 )">
    <path d="M 10.703125 1.38671875  C 12.8645833333333 0.462239583333333  15.1302083333333 0  17.5 0  C 19.8697916666667 0  22.1354166666667 0.462239583333333  24.296875 1.38671875  C 26.4583333333333 2.31119791666667  28.3203125 3.5546875  29.8828125 5.1171875  C 31.4453125 6.6796875  32.6888020833333 8.54166666666666  33.61328125 10.703125  C 34.5377604166667 12.8645833333333  35 15.1302083333333  35 17.5  C 35 19.8567708333333  34.541015625 22.1158854166667  33.623046875 24.27734375  C 32.705078125 26.4388020833333  31.46484375 28.30078125  29.90234375 29.86328125  C 28.33984375 31.42578125  26.4778645833333 32.6725260416667  24.31640625 33.603515625  C 22.1549479166667 34.5345052083333  19.8828125 35  17.5 35  C 15.1171875 35  12.8450520833333 34.5377604166667  10.68359375 33.61328125  C 8.52213541666667 32.6888020833333  6.66341145833333 31.4420572916667  5.107421875 29.873046875  C 3.55143229166667 28.3040364583333  2.31119791666667 26.4420572916667  1.38671875 24.287109375  C 0.462239583333333 22.1321614583333  0 19.8697916666667  0 17.5  C 0 15.1302083333333  0.462239583333333 12.8645833333333  1.38671875 10.703125  C 2.31119791666667 8.54166666666666  3.5546875 6.6796875  5.1171875 5.1171875  C 6.6796875 3.5546875  8.54166666666667 2.31119791666667  10.703125 1.38671875  Z M 23.61328125 20  C 26.73828125 20  28.73046875 22.12890625  29.58984375 26.38671875  C 31.5299479166667 23.7174479166667  32.5 20.7552083333333  32.5 17.5  C 32.5 15.46875  32.1028645833333 13.5286458333333  31.30859375 11.6796875  C 30.5143229166667 9.83072916666667  29.4466145833333 8.23567708333333  28.10546875 6.89453125  C 26.7643229166667 5.55338541666667  25.1692708333333 4.48567708333333  23.3203125 3.69140625  C 21.4713541666667 2.89713541666666  19.53125 2.5  17.5 2.5  C 15.46875 2.5  13.5286458333333 2.89713541666666  11.6796875 3.69140625  C 9.83072916666667 4.48567708333333  8.23567708333333 5.55338541666667  6.89453125 6.89453125  C 5.55338541666667 8.23567708333333  4.48567708333333 9.83072916666667  3.69140625 11.6796875  C 2.89713541666667 13.5286458333333  2.5 15.46875  2.5 17.5  C 2.5 20.7552083333333  3.47005208333333 23.7174479166667  5.41015625 26.38671875  C 6.26953125 22.12890625  8.26171875 20  11.38671875 20  C 13.0924479166667 21.6666666666667  15.1302083333333 22.5  17.5 22.5  C 19.8697916666667 22.5  21.9075520833333 21.6666666666667  23.61328125 20  Z M 22.802734375 19.052734375  C 24.267578125 17.587890625  25 15.8203125  25 13.75  C 25 11.6796875  24.267578125 9.912109375  22.802734375 8.447265625  C 21.337890625 6.982421875  19.5703125 6.25  17.5 6.25  C 15.4296875 6.25  13.662109375 6.982421875  12.197265625 8.447265625  C 10.732421875 9.912109375  10 11.6796875  10 13.75  C 10 15.8203125  10.732421875 17.587890625  12.197265625 19.052734375  C 13.662109375 20.517578125  15.4296875 21.25  17.5 21.25  C 19.5703125 21.25  21.337890625 20.517578125  22.802734375 19.052734375  Z " fill-rule="nonzero" fill="#000000" stroke="none" transform="matrix(1 0 0 1 432 450 )" />
  </g>
</svg>