<?xml version="1.0" encoding="utf-8"?>
<svg version="1.1" xmlns:xlink="http://www.w3.org/1999/xlink" width="23px" height="23px" xmlns="http://www.w3.org/2000/svg">
  <g transform="matrix(1 0 0 1 -563 -791 )">
    <path d="M 22.5426136363636 8.82102272727273  C 22.8475378787879 9.12594696969697  23 9.49621212121212  23 9.93181818181818  L 23 13.0681818181818  C 23 13.5037878787879  22.8475378787879 13.874053030303  22.5426136363636 14.1789772727273  C 22.2376893939394 14.4839015151515  21.8674242424242 14.6363636363636  21.4318181818182 14.6363636363636  L 14.6363636363636 14.6363636363636  L 14.6363636363636 21.4318181818182  C 14.6363636363636 21.8674242424242  14.4839015151515 22.2376893939394  14.1789772727273 22.5426136363636  C 13.874053030303 22.8475378787879  13.5037878787879 23  13.0681818181818 23  L 9.93181818181818 23  C 9.49621212121212 23  9.12594696969697 22.8475378787879  8.82102272727273 22.5426136363636  C 8.51609848484849 22.2376893939394  8.36363636363636 21.8674242424242  8.36363636363636 21.4318181818182  L 8.36363636363636 14.6363636363636  L 1.56818181818182 14.6363636363636  C 1.13257575757576 14.6363636363636  0.762310606060606 14.4839015151515  0.457386363636364 14.1789772727273  C 0.152462121212121 13.874053030303  0 13.5037878787879  0 13.0681818181818  L 0 9.93181818181818  C 0 9.49621212121212  0.152462121212121 9.12594696969697  0.457386363636364 8.82102272727273  C 0.762310606060606 8.51609848484848  1.13257575757576 8.36363636363636  1.56818181818182 8.36363636363636  L 8.36363636363636 8.36363636363636  L 8.36363636363636 1.56818181818182  C 8.36363636363636 1.13257575757576  8.51609848484849 0.762310606060605  8.82102272727273 0.457386363636364  C 9.12594696969697 0.15246212121212  9.49621212121212 0  9.93181818181818 0  L 13.0681818181818 0  C 13.5037878787879 0  13.874053030303 0.15246212121212  14.1789772727273 0.457386363636364  C 14.4839015151515 0.762310606060605  14.6363636363636 1.13257575757576  14.6363636363636 1.56818181818182  L 14.6363636363636 8.36363636363636  L 21.4318181818182 8.36363636363636  C 21.8674242424242 8.36363636363636  22.2376893939394 8.51609848484848  22.5426136363636 8.82102272727273  Z " fill-rule="nonzero" fill="#aaaaaa" stroke="none" transform="matrix(1 0 0 1 563 791 )" />
  </g>
</svg>