<?xml version="1.0" standalone="no"?><!DOCTYPE svg PUBLIC "-//W3C//DTD SVG 1.1//EN" "http://www.w3.org/Graphics/SVG/1.1/DTD/svg11.dtd"><svg t="1590135473023" class="icon" viewBox="0 0 1024 1024" version="1.1" xmlns="http://www.w3.org/2000/svg" p-id="11129" xmlns:xlink="http://www.w3.org/1999/xlink" width="32" height="32"><defs><style type="text/css"></style></defs><path d="M429.614545 322.094545m27.461819 0l0 0q27.461818 0 27.461818 27.461819l0 252.974545q0 27.461818-27.461818 27.461818l0 0q-27.461818 0-27.461819-27.461818l0-252.974545q0-27.461818 27.461819-27.461819Z" fill="#2C2C2C" p-id="11130"></path><path d="M737.28 575.069091m0 27.461818l0 0q0 27.461818-27.461818 27.461818l-252.974546 0q-27.461818 0-27.461818-27.461818l0 0q0-27.461818 27.461818-27.461818l252.974546 0q27.461818 0 27.461818 27.461818Z" fill="#2C2C2C" p-id="11131"></path><path d="M512 968.610909a453.818182 453.818182 0 1 1 453.818182-453.818182A454.516364 454.516364 0 0 1 512 968.610909z m0-884.363636a430.545455 430.545455 0 1 0 430.545455 430.545454A431.010909 431.010909 0 0 0 512 84.247273z" fill="#2C2C2C" p-id="11132"></path></svg>