<?xml version="1.0" encoding="utf-8"?>
<svg version="1.1" xmlns:xlink="http://www.w3.org/1999/xlink" width="25px" height="29px" xmlns="http://www.w3.org/2000/svg">
  <g transform="matrix(1 0 0 1 -479 -274 )">
    <path d="M 24.41525334375 24.14922665625  C 24.36565334375 23.69002665625  24.28 23.23712  24.13354665625 22.79861334375  C 23.83328 21.8993066875  23.31882665625 21.08885334375  22.64618665625 20.42186665625  C 21.84416 19.62666665625  20.85482665625 19.0702933125  19.81802665625 18.64330665625  C 19.02464 18.3166933125  18.19552 18.0837333125  17.35413334375 17.91168  C 19.07232 16.52032  20.2564266875 14.50837334375  20.77045334375 12.35861334375  C 21.39296 9.75616  21.1092266875 6.84661334375  19.74986665625 4.51594665625  C 18.5659733125 2.48618665625  16.5504 1.02592  14.24565334375 0.557973343750001  C 11.86581334375 0.0747733437500004  9.30336 0.5655466875  7.30090665625 1.94933334375  C 5.24053334375 3.37312  3.88256 5.62485334375  3.51168 8.09578665625  C 3.28949334375 9.57578665625  3.37066665625 11.0907733125  3.7392 12.54176  C 4.09845334375 13.95626665625  4.75509334375 15.27210665625  5.64682665625 16.42389334375  C 6.07552041771566 16.9762545244336  6.56724056617763 17.4766735554792  7.112 17.91498665625  C 6.16608 18.11274665625  5.23978665625 18.38784  4.34570665625 18.76970665625  C 3.36778665625 19.18752  2.44106665625 19.77098665625  1.70016 20.53952  C 0.44832 21.83797334375  -0.17706665625 23.70570665625  0.04373334375 25.49994665625  C 0.13493334375 26.24170665625  0.38176 26.9474133125  0.92277334375 27.48416  C 1.4404266875 27.99754665625  2.14496 28.2816  2.8432 28.448  C 3.77056 28.66901334375  4.73930665625 28.72629334375  5.68906665625 28.75957334375  C 6.952 28.8036266875  8.2168533125 28.7866666875  9.48021334375 28.77834665625  C 11.0234666875 28.76810665625  12.5664 28.77034665625  14.10965334375 28.78005334375  C 15.4349866875 28.78848  16.7613866875 28.8004266875  18.08608 28.75232  C 19.13642665625 28.71424  20.19893334375 28.64117334375  21.22762665625 28.41578665625  C 22.02090665625 28.24202665625  22.7986133125 27.94538665625  23.42058665625 27.4112  C 24.02912 26.88864  24.32266665625 26.14912  24.42336 25.37130665625  C 24.47552 24.96768  24.45877334375 24.5528533125  24.41525334375 24.14922665625  Z M 23.26858665625 24.07381334375  C 23.2507733125 23.94752  23.2635733125 24.03413334375  23.26858665625 24.0736  Z M 22.94421334375 22.84512  C 22.94837334375 22.85514665625  22.94965334375 22.85813334375  22.94421334375 22.84512  Z M 15.33834665625 2.07125334375  C 15.33162665625 2.06848  15.3326933125 2.0689066875  15.33834665625 2.07125334375  Z M 23.30773334375 24.55594665625  C 23.3192715344353 24.7606832600142  23.3183810035148 24.9659312265538  23.30506665625 25.17056  C 23.3015726580766 25.2192395626801  23.2971986096113 25.2678519584456  23.29194665625 25.31637334375  C 23.2785294834161 25.4031213748988  23.2615193063051 25.4892754485375  23.24096 25.57461334375  C 23.2219848050207 25.6529109883712  23.1996350724653 25.7303521084678  23.17397334375 25.80672  C 23.16181334375 25.84330665625  23.14837334375 25.87957334375  23.13450665625 25.91562665625  L 23.1312 25.92288  C 23.0674624728513 26.0609888581738  22.9903663956683 26.1925309163319  22.90101334375 26.31562665625  C 22.8265694982268 26.4060172147884  22.7454532433637 26.4906990155277  22.65834665625 26.56896  C 22.6302933125 26.59445334375  22.6014933125 26.6192  22.57226665625 26.64341334375  L 22.56234665625 26.65141334375  C 22.5002287920339 26.6971620726797  22.4363961382237 26.7405355391016  22.37098665625 26.78144  C 22.22506665625 26.87285334375  22.07104 26.95125334375  21.91381334375 27.02122665625  C 21.8701264516003 27.0387615769817  21.826211563801 27.055723034329  21.78208 27.07210665625  C 21.68821334375 27.10698665625  21.59317334375 27.13856  21.49770665625 27.16832  C 21.0862933125 27.29642665625  20.6616533125 27.37994665625  20.23605334375 27.44426665625  C 20.2032 27.4491733125  20.1703466875 27.4536533125  20.13749334375 27.45834665625  C 20.10368 27.46272  20.04053334375 27.47104  20.01664 27.47392  C 19.8874682535599 27.4896334433948  19.7581072628381 27.5037500732202  19.62858665625 27.51626665625  C 19.36458665625 27.5422933125  19.09994665625 27.56192  18.83509334375 27.57813334375  C 18.24597334375 27.6144  17.6554666875 27.63061334375  17.06528 27.63978665625  C 15.656 27.6616533125  14.24618665625 27.64128  12.8368 27.63424  C 11.32704 27.62677334375  9.81749334374999 27.64064  8.30794665624999 27.64704  C 7.14613331249999 27.65205334375  5.98143999999999 27.65610665625  4.82175999999999 27.57813334375  C 4.58671512683488 27.5625255809177  4.35203047867784 27.541898646571  4.11786665624999 27.51626665625  C 4.0496800763175 27.5086910193806  3.98155357008932 27.5005841065396  3.91349334374999 27.49194665625  C 3.81109334374999 27.47754665625  3.70890668749999 27.46154665625  3.60682665624999 27.44416  C 3.24159999999999 27.38154665625  2.87903999999999 27.29557334375  2.53077334374999 27.16821334375  C 2.49530435640609 27.1550568847991  2.45999512845256 27.1414736703232  2.42485334374999 27.12746665625  C 2.35149436600739 27.094742133763  2.27927448544582 27.0595216025726  2.20831999999999 27.02186665625  C 2.10434327470763 26.9665421548811  2.00401378400897 26.9046200529673  1.90794665624999 26.83648  C 1.88458665624999 26.81653334375  1.80447999999999 26.75221334375  1.77642665624999 26.72629334375  C 1.7224744127236 26.6763945063902  1.67106719499044 26.6238124594599  1.62239999999999 26.56874665625  C 1.60511533818112 26.5491322471272  1.58825804238448 26.5291453302675  1.57183999999999 26.5088  C 1.52917334374999 26.44981334375  1.49002665624999 26.38837334375  1.45333334374999 26.32544  C 1.41813334374999 26.26506665625  1.38634668749999 26.20277334375  1.35658665624999 26.13952  L 1.34997334374999 26.12490665625  C 1.33921135476971 26.0971382874131  1.32882816216079 26.0692245931729  1.31882665624999 26.04117334375  C 1.26495999999999 25.8893866875  1.22591999999999 25.7325866875  1.19615999999999 25.5744  C 1.18894164126257 25.5353579522914  1.18232751704014 25.4962066040716  1.17631999999999 25.45696  C 1.16543969154987 25.3616496446482  1.15743605396759 25.2660328543319  1.15231999999999 25.17024  C 1.14181352685995 24.9654046819942  1.1414931317018 24.7601737799921  1.15135999999999 24.55530665625  C 1.15827390561594 24.4026242864072  1.17069085755164 24.2502408548984  1.18858665624999 24.09845334375  L 1.18965334374999 24.09002665625  L 1.19541334374999 24.04938665625  C 1.22687225647032 23.8426654000036  1.26956658847612 23.6378109181844  1.32330665624999 23.43573334375  C 1.3770210284765 23.234414152226  1.44230277721412 23.036360791012  1.51882665624999 22.84256  L 1.53503999999999 22.80234665625  C 1.59693290915849 22.6606168433499  1.6651616892453 22.5217390725763  1.73951999999999 22.38613334375  C 1.84252050706098 22.1982555058009  1.95682841655123 22.0168019460554  2.08181334374999 21.84277334375  C 2.10069334374999 21.81632  2.12031999999999 21.7904  2.13983999999999 21.76437334375  C 2.15946665624999 21.73909334375  2.18805334374999 21.7021866875  2.20074665624999 21.68661334375  C 2.2743282012977 21.5964327652717  2.3507030736188 21.5085678649599  2.42975999999999 21.42314665625  C 2.58741538259871 21.2528272886394  2.75469359130871 21.0916746673195  2.93077334374999 20.94048  C 2.97429334374999 20.90282665625  3.01855999999999 20.86613334375  3.06314665624999 20.82954665625  C 3.07903999999999 20.8165333125  3.12138665624999 20.78314665625  3.14922665624999 20.76128  C 3.23922181829374 20.6931505435544  3.3308025644247 20.6271412771971  3.42389334374999 20.56330665625  C 3.87306668749999 20.25482665625  4.35679999999999 19.9989333125  4.85514665624999 19.77994665625  C 4.87029331249999 19.77322665625  4.88554665624999 19.76682665625  4.90069334374999 19.76021334375  L 4.94805334374999 19.74026665625  C 5.16480141121742 19.6518311829019  5.38409561522543 19.5697692642244  5.60565334374999 19.49418665625  C 5.91818993144346 19.38797942721  6.23444798864253 19.293055761362  6.55381334374999 19.2096  C 7.27306668749999 19.01962665625  8.00629334374999 18.88469334375  8.74303999999999 18.78357334375  C 8.93194665624999 18.75776  9.09322665624999 18.55797334375  9.14047999999999 18.38624  C 9.20735999999999 18.14293334375  9.10047999999999 17.86890665625  8.87903999999999 17.74368  C 8.70830129325103 17.647100770656  8.54091462626047 17.5447120732593  8.37717334374999 17.43669334375  C 8.29516769303273 17.3823145791561  8.21415871113068 17.3264475433494  8.13418665624999 17.26912  C 8.09397331249999 17.24042665625  8.05429331249999 17.21109334375  8.01471999999999 17.18186665625  C 7.99402665624999 17.1664  7.97354665624999 17.1509333125  7.95306665624999 17.13536  L 7.93386665624999 17.12021334375  C 7.66069331249999 16.90528  7.40287999999999 16.67125334375  7.15807999999999 16.42474665625  C 6.9254802485902 16.1893193133331  6.70601922303331 15.9412638974231  6.50069334374999 15.68170665625  L 6.47413334374999 15.64778665625  C 6.40682675796273 15.559252752769  6.34114466477738 15.4694955313179  6.27711999999999 15.37856  C 6.17605382543783 15.2350144243845  6.07895052430864 15.0887192311448  5.98591999999999 14.93984  C 5.72298335361763 14.5186432015263  5.49255505136834 14.0780052363616  5.29663999999999 13.62176  L 5.27466665624999 13.56938665625  C 5.22167946256749 13.4394835817174  5.17146364927114 13.3084672348528  5.12405334374999 13.17642665625  C 4.87946668749999 12.50112  4.71050668749999 11.79946665625  4.60874665624999 11.08885334375  L 4.60522665624999 11.06101334375  C 4.56480939330772 10.7350881669436  4.53918310588971 10.4074987927835  4.52842665624999 10.07925334375  C 4.51654859778936 9.7288267529608  4.52217338053037 9.37802564269965  4.54527999999999 9.02816000000001  C 4.55551999999999 8.87040000000001  4.57045334374999 8.71285334375001  4.58826665624999 8.55562665625001  C 4.59231999999999 8.51946665625001  4.59690665624999 8.48341331250001  4.60138665624999 8.44736000000001  C 4.61465642880568 8.35449530773438  4.62927129666404 8.2618277966246  4.64522665624999 8.16938665625001  C 4.69887488842736 7.85891728055488  4.76833413580751 7.55138836614056  4.85333334375 7.248  C 4.94574661976395 6.91843127938199  5.05722320933852 6.59450807660237  5.1872 6.27786665625  L 5.18858665625 6.27456  C 5.27734820887252 6.06884062156281  5.37409726002565 5.86666038281189  5.47861334375 5.66848  C 5.68029304545258 5.28630400561555  5.91124002236599 4.92030510265901  6.16938665625 4.57376  C 6.18868157332599 4.54798915405824  6.2082023253 4.52238816786282  6.22794665625 4.49696  C 6.27776 4.43370665625  6.32896 4.37162665625  6.38058665625 4.30997334375  C 6.74410665625 3.87573334375  7.1547733125 3.48181334375  7.59925334375 3.13130665625  L 7.59978665625 3.13077334375  C 7.68114428939117 3.06939637244766  7.7635383984772 3.00940549355092  7.84693334375 2.95082665625  C 8.30888851736507 2.62774366315055  8.8024822267293 2.35244482160418  9.32010665625 2.12917334375  C 9.42556154044293 2.08585615221928  9.53189508336149 2.04470969217825  9.63904 2.00576  C 9.90843841529706 1.90780763936332  10.1826409710497 1.82361015483984  10.46058665625 1.75349334375  C 10.7489494717061 1.68079666111513  11.0408997537324 1.62315428015745  11.33525334375 1.5808  L 11.40437334375 1.57226665625  C 11.6265742051795 1.54600962630528  11.8497114083186 1.52839634018282  12.07328 1.51946665625  C 12.36949334375 1.50698665625  12.66634665625 1.5109333125  12.96213334375 1.52842665625  C 13.1018666875 1.53664  13.24117334375 1.54922665625  13.38016 1.56437334375  C 13.40586665625 1.5671466875  13.49226665625 1.57845334375  13.52864 1.58304  C 14.1442136422237 1.67294773849782  14.7470525081014 1.83506047813389  15.32469334375 2.06602665625  C 15.3437866875 2.0736  15.3626666875 2.0816  15.38165334375 2.08938665625  L 15.40245334375 2.09824  C 15.8445830324663 2.29109236805267  16.2672691871181 2.52575926697916  16.66474665625 2.79904  C 16.7549019293166 2.86108745608226  16.8436359373198 2.92517510531221  16.93088 2.99125334375  C 16.95328 3.00917334375  17.02709334375 3.06677334375  17.04778665625 3.08341334375  C 17.423223239625 3.38984447460737  17.7688010946851 3.73113652530474  18.07989334375 4.10272  C 18.1297604305245 4.16223688667924  18.1787611422732 4.22247434413211  18.22688 4.28341334375  C 18.24501334375 4.3073066875  18.26314665625 4.33109334375  18.28106665625 4.35509334375  C 18.4493594506755 4.5819853505715  18.6056965090602 4.81750564622503  18.74944 5.06069334375  C 18.9318065535187 5.36905566444073  19.0943747442908 5.68870540712238  19.23616 6.01770665625  C 19.3081023097256 6.19256942439515  19.37462295165 6.36961394425984  19.43562665625 6.54858665625  C 19.6306133125 7.11786665625  19.7653333125 7.70666665625  19.85162665625 8.30197334375  C 19.8546133125 8.3293866875  19.8702933125 8.4496  19.87349334375 8.47829334375  C 19.9013898430291 8.72760746521328  19.9205305020473 8.97782359428659  19.93088 9.22848  C 19.94645334375 9.57930665625  19.944 9.93088  19.92672 10.2816  C 19.9133761083854 10.538619784911  19.891069207133 10.7950957835216  19.85984 11.05056  L 19.85397334375 11.09525334375  C 19.7987528435929 11.4865332386236  19.7216542532449 11.8744121269068  19.62304 12.25706665625  C 19.5043173911053 12.7176723148231  19.3538054506501 13.1694932572161  19.17258665625 13.60928  C 18.978779983239 14.0622924491393  18.7509649159203 14.4999869332638  18.49109334375 14.91861334375  C 18.4089386355594 15.0508499327869  18.3236161966784 15.1810920094017  18.2352 15.30922665625  C 18.1912463372202 15.3729343040441  18.1464423279675 15.436051066583  18.1008 15.49856  C 18.07818665625 15.52981334375  18.05514665625 15.56074665625  18.03210665625 15.59168  C 18.024 15.60266665625  17.9998933125 15.63392  17.98218665625 15.65706665625  C 17.568549339526 16.1847218550272  17.0963332744532 16.6637012556535  16.57461334375 17.0848  C 16.55509334375 17.10037334375  16.53568 17.11594665625  16.51616 17.13130665625  L 16.51104 17.13536  C 16.2166029453742 17.3593536670815  15.9070289949385 17.5627187351274  15.58453334375 17.744  C 15.5422249113125 17.7681715702586  15.503458479854 17.7980719787686  15.46933334375 17.83285334375  C 15.4652362025185 17.8367546878256  15.4612176153177 17.8407377053927  15.45728 17.8448  L 15.44832 17.85450665625  C 15.3620174952716 17.948727583713  15.311641550051 18.0703246913404  15.30602665625 18.19797334375  C 15.30570665625 18.20309334375  15.3058133125 18.20821334375  15.3056 18.21344  L 15.30549334375 18.21824  C 15.3012826776179 18.3230984815651  15.3265199956352 18.4270407924709  15.37834665625 18.51829334375  C 15.3784533125 18.5188266875  15.3787733125 18.51925334375  15.37898665625 18.51968  L 15.38048 18.52245334375  L 15.38090665625 18.5232  C 15.45130665625 18.65728  15.56810665625 18.76309334375  15.72053334375 18.78389334375  L 15.7568 18.78922665625  C 15.78133334375 18.79424  15.80618665625 18.79808  15.83136 18.79989334375  C 16.53088 18.89941334375  17.22549334375 19.03136  17.90944 19.21002665625  C 18.22869334375 19.29344  18.54485334375 19.38858665625  18.85738665625 19.49461334375  C 19.0674940336823 19.5663473662274  19.2755738487448 19.6438882134403  19.48138665625 19.72714665625  C 19.49376 19.73216  19.50602665625 19.73738665625  19.5184 19.74250665625  C 19.54005334375 19.75168  19.59029334375 19.7726933125  19.60757334375 19.78026665625  C 20.10677334375 19.99754665625  20.5879466875 20.25706665625  21.03808 20.56362665625  C 21.13312 20.62826665625  21.22613334375 20.6958933125  21.31776 20.76522665625  C 21.3899354230415 20.8223089160123  21.4609195627165 20.8808815030688  21.53066665625 20.94090665625  C 21.7065211747434 21.0921637754716  21.8736184062975 21.2533136061234  22.03114665625 21.42357334375  C 22.1041165512234 21.5024417962558  22.1747948746632 21.5833999414658  22.24309334375 21.66634665625  C 22.26048 21.68736  22.2772266875 21.70890665625  22.29418665625 21.73034665625  C 22.31232 21.7547733125  22.3621333125 21.8203733125  22.37866665625 21.84330665625  C 22.5625190142305 22.0996122732982  22.7230871502556 22.3718427206432  22.85845334375 22.65674665625  C 22.87968 22.7013333125  22.90005334375 22.7464533125  22.92 22.79168  C 22.92693334375 22.80874665625  22.93408 22.82581334375  22.94090665625 22.84309334375  C 23.0173891267348 23.0368767217881  23.0825652838609 23.2349338786453  23.13610665625 23.43626665625  C 23.1898379271224 23.6383333770019  23.2324617609896 23.8431912887818  23.26378665625 24.04992  L 23.26826665625 24.08064  C 23.2872662123343 24.2385359563639  23.300430737959 24.3970794534794  23.30773334375 24.55594665625  Z " fill-rule="nonzero" fill="#ffffff" stroke="none" transform="matrix(1 0 0 1 479 274 )" />
  </g>
</svg>