<?xml version="1.0" standalone="no"?><!DOCTYPE svg PUBLIC "-//W3C//DTD SVG 1.1//EN" "http://www.w3.org/Graphics/SVG/1.1/DTD/svg11.dtd"><svg t="1590130886714" class="icon" viewBox="0 0 1024 1024" version="1.1" xmlns="http://www.w3.org/2000/svg" p-id="2045" xmlns:xlink="http://www.w3.org/1999/xlink" width="32" height="32"><defs><style type="text/css"></style></defs><path d="M960.1 112.9c0-1.9-1.6-3.5-3.5-3.5H237.2c-1.9 0-3.5 1.6-3.5 3.5v59c0 1.9 1.6 3.5 3.5 3.5h719.3c1.9 0 3.5-1.6 3.5-3.5v-59z" fill="" p-id="2046"></path><path d="M107.9 142.4m-44 0a44 44 0 1 0 88 0 44 44 0 1 0-88 0Z" fill="" p-id="2047"></path><path d="M960.1 359.3c0-1.9-1.6-3.5-3.5-3.5H237.2c-1.9 0-3.5 1.6-3.5 3.5v59c0 1.9 1.6 3.5 3.5 3.5h719.3c1.9 0 3.5-1.6 3.5-3.5v-59z" fill="" p-id="2048"></path><path d="M107.9 388.8m-44 0a44 44 0 1 0 88 0 44 44 0 1 0-88 0Z" fill="" p-id="2049"></path><path d="M960.1 852.1c0-1.9-1.6-3.5-3.5-3.5H237.2c-1.9 0-3.5 1.6-3.5 3.5v59c0 1.9 1.6 3.5 3.5 3.5h719.3c1.9 0 3.5-1.6 3.5-3.5v-59z" fill="" p-id="2050"></path><path d="M107.9 881.6m-44 0a44 44 0 1 0 88 0 44 44 0 1 0-88 0Z" fill="" p-id="2051"></path><path d="M960.1 605.7c0-1.9-1.6-3.5-3.5-3.5H237.2c-1.9 0-3.5 1.6-3.5 3.5v59c0 1.9 1.6 3.5 3.5 3.5h719.3c1.9 0 3.5-1.6 3.5-3.5v-59z" fill="" p-id="2052"></path><path d="M107.9 635.2m-44 0a44 44 0 1 0 88 0 44 44 0 1 0-88 0Z" fill="" p-id="2053"></path></svg>