<?xml version="1.0" standalone="no"?><!DOCTYPE svg PUBLIC "-//W3C//DTD SVG 1.1//EN" "http://www.w3.org/Graphics/SVG/1.1/DTD/svg11.dtd"><svg t="1590132038026" class="icon" viewBox="0 0 1024 1024" version="1.1" xmlns="http://www.w3.org/2000/svg" p-id="4812" xmlns:xlink="http://www.w3.org/1999/xlink" width="32" height="32"><defs><style type="text/css"></style></defs><path d="M767.5 379.9H662.6V244.3c0-17.3-14.2-31.5-31.5-31.5H406.3c-17.3 0-31.5 14.2-31.5 31.5v135.6h-98c-21.9 0-39.8 17.9-39.8 39.8s17.9 39.8 39.8 39.8H726v278.6H311.1V630.3h-0.4c-2.7-17.8-18.1-31.5-36.6-31.5s-34 13.8-36.6 31.5h-0.4V785c0 17.9 14.7 32.6 32.6 32.6h498c17.9 0 32.6-14.7 32.6-32.6V412.5c-0.2-17.9-14.9-32.6-32.8-32.6z m-173 0H437V278.1h157.5v101.8z" fill="#6CEA9F" p-id="4813"></path><path d="M274 578.2c20.4 0 37.1-16.7 37.1-37.1V515c0-20.4-16.7-37.1-37.1-37.1-20.4 0-37.1 16.7-37.1 37.1v26.1c0 20.4 16.7 37.1 37.1 37.1z" fill="#6CEA9F" p-id="4814"></path></svg>