<?xml version="1.0" encoding="utf-8"?>
<svg version="1.1" xmlns:xlink="http://www.w3.org/1999/xlink" width="1487px" height="350px" xmlns="http://www.w3.org/2000/svg">
  <g transform="matrix(1 0 0 1 -94 -90 )">
    <path d="M 95 100  A 9 9 0 0 1 104 91 L 1571 91  A 9 9 0 0 1 1580 100 L 1580 430  A 9 9 0 0 1 1571 439 L 104 439  A 9 9 0 0 1 95 430 L 95 100  Z " fill-rule="nonzero" fill="#ffffff" stroke="none" />
    <path d="M 94.5 100  A 9.5 9.5 0 0 1 104 90.5 L 1571 90.5  A 9.5 9.5 0 0 1 1580.5 100 L 1580.5 430  A 9.5 9.5 0 0 1 1571 439.5 L 104 439.5  A 9.5 9.5 0 0 1 94.5 430 L 94.5 100  Z " stroke-width="1" stroke="#797979" fill="none" stroke-opacity="0.415686274509804" />
  </g>
</svg>