<?xml version="1.0" encoding="utf-8"?>
<svg version="1.1" xmlns:xlink="http://www.w3.org/1999/xlink" width="1487px" height="306px" xmlns="http://www.w3.org/2000/svg">
  <g transform="matrix(1 0 0 1 -94 -541 )">
    <path d="M 95 551  A 9 9 0 0 1 104 542 L 1571 542  A 9 9 0 0 1 1580 551 L 1580 837  A 9 9 0 0 1 1571 846 L 104 846  A 9 9 0 0 1 95 837 L 95 551  Z " fill-rule="nonzero" fill="#ffffff" stroke="none" />
    <path d="M 94.5 551  A 9.5 9.5 0 0 1 104 541.5 L 1571 541.5  A 9.5 9.5 0 0 1 1580.5 551 L 1580.5 837  A 9.5 9.5 0 0 1 1571 846.5 L 104 846.5  A 9.5 9.5 0 0 1 94.5 837 L 94.5 551  Z " stroke-width="1" stroke="#797979" fill="none" stroke-opacity="0.490196078431373" />
  </g>
</svg>