<?xml version="1.0" encoding="utf-8"?>
<svg version="1.1" xmlns:xlink="http://www.w3.org/1999/xlink" width="30px" height="32px" xmlns="http://www.w3.org/2000/svg">
  <g transform="matrix(1 0 0 1 -614 -273 )">
    <path d="M 29.66532 6.63200098687794  C 29.6771991782087 5.38232825011838  28.6775713593083 4.35768005751642  27.42798665625 4.33866788472061  L 24.89998665625 4.33866788472061  L 24.89998665625 2.25333479190138  C 24.9000386420364 2.24711213727689  24.9000646352698 2.2408892926485  24.9000646352698 2.234666420876  C 24.9000646352698 1.00049423568842  23.8995702942221 0  22.6653979790198 0  C 22.6644831003377 0  22.663568221742 0  22.66265334375 0  L 2.56932 0  C 2.56840511159143 0  2.56749022257851 0  2.56657533347987 0  C 1.33240301827763 0  0.331908677229873 1.00049423565004  0.331908677229873 2.23466642083761  C 0.331908677229873 2.24088929262283  0.331934670463341 2.24711213726419  0.33198665625 2.25333479190138  L 0.33198665625 25.4079990089082  C 0.331934670463341 25.4142216635454  0.331908677229873 25.4204445081868  0.331908677229873 25.426667379972  C 0.331908677229873 26.6608395651596  1.33240301827763 27.6613338008096  2.56657533347987 27.6613338008096  C 2.56749022257797 27.6613338008096  2.56840511159197 27.6613332389661  2.56932 27.6613321152794  L 5.09732 27.6613321152794  L 5.09732 29.7466652080986  C 5.09726801421334 29.7528878627359  5.09724202097987 29.7591107073771  5.09724202097987 29.7653335791624  C 5.09724202097987 30.99950576435  6.09773636202763 32  7.33190867722987 32  C 7.33282356632798 32  7.33373845534197 31.9999994381565  7.33465334375 32  L 27.42798665625 32  C 27.4289015446596 31.9999994381565  27.4298164336704 32  27.4307313227701 32  C 28.6649036379724 32  29.6653979790201 30.99950576435  29.6653979790201 29.7653335791624  C 29.6653979790201 29.7591107073769  29.6653719857867 29.7528878627361  29.66532 29.7466652080986  L 29.66532 6.63200098687794  Z M 5 25.6986656345378  L 2.56932 25.6986656345378  C 2.56657318162164 25.6987600376732  2.56382494425416 25.6988072496877  2.56107650412246 25.6988072496877  C 2.42852816416307 25.6988072496877  2.32107650412246 25.5913556009667  2.32107650412246 25.4588072749707  C 2.32107650412246 25.4552031469191  2.32115769000709 25.4515994761197  2.32132 25.4479990046944  L 2.32132 2.29333478768755  C 2.32115768906669 2.28973430584932  2.32107650271151 2.28613062460916  2.32107650271151 2.2825264861128  C 2.32107650271151 2.1499781601168  2.42852816275212 2.04252651139575  2.56107650271151 2.04252651139575  C 2.56382494331377 2.04252651139575  2.56657318115192 2.04257372342642  2.56932 2  L 22.66265334375 2  C 22.6654001625981 2.04257372342642  22.6681484004362 2.04252651139575  22.6708968410385 2.04252651139575  C 22.8034451809979 2.04252651139575  22.9108968410385 2.1499781601168  22.9108968410385 2.2825264861128  C 22.9108968410385 2.28613062460917  22.9108156546833 2.28973430584931  22.91065334375 2.29333478768755  L 22.91065334375 5  L 7.33465334375 5  C 7.33373845534143 4.37866675682008  7.33282356632851 4.37866619497657  7.33190867722987 4.37866619497657  C 6.09773636202763 4.37866619497657  5.09724202097987 5.37916043062661  5.09724202097987 6.61333261581418  C 5.09724202097987 6.61955548759932  5.09726801421334 6.62577833224083  5 6.63200098687794  L 5 25.6986656345378  Z M 27.67598665625 6.63200098687794  L 27.67598665625 29.7466652080986  C 27.6761489671833 29.7502656899369  27.6762301535385 29.753869371177  27.6762301535385 29.7574735096734  C 27.6762301535385 29.8900218356694  27.5687784934979 29.9974734843904  27.4362301535385 29.9974734843904  C 27.4334817129363 29.9974734843904  27.430733475098 29.9974262723598  27.42798665625 30  L 7.33465334375 30  C 7.33190652490186 29.9974262723598  7.32915828706384 29.9974734843904  7.32640984646151 29.9974734843904  C 7.19386150650212 29.9974734843904  7.08640984646151 29.8900218356694  7.08640984646151 29.7574735096734  C 7.08640984646151 29.753869371177  7.08649103281669 29.7502656899369  7 29.7466652080986  L 7 6.63200098687794  C 7.08649103375708 6.62840051545267  7.08640984787246 6.6247968446533  7.08640984787246 6.62119271660168  C 7.08640984787246 6.48864439060568  7.19386150791307 6.38119274188463  7.32640984787246 6.38119274188463  C 7.3291582880041 6.38119274188463  7.3319065253717 6.38123995389913  7.33465334375 7  L 27.42798665625 7  C 27.4307334746283 6.38123995389913  27.4334817119959 6.38119274188463  27.4362301521275 6.38119274188463  C 27.5687784920869 6.38119274188463  27.6762301521275 6.48864439060568  27.6762301521275 6.62119271660168  C 27.6762301521275 6.62479684465331  27.6761489662429 6.62840051545265  27.67598665625 6.63200098687794  Z " fill-rule="nonzero" fill="#ffffff" stroke="none" transform="matrix(1 0 0 1 614 273 )" />
  </g>
</svg>