<?xml version="1.0" encoding="utf-8"?>
<svg version="1.1" xmlns:xlink="http://www.w3.org/1999/xlink" width="16px" height="27px" xmlns="http://www.w3.org/2000/svg">
  <g transform="matrix(1 0 0 1 -495 -273 )">
    <path d="M 15.57226665625 24.99178665625  C 16.06624 24.16992  16.05162665625 23.1691733125  15.92565334375 22.25109334375  C 15.81312 21.43221334375  15.50624 20.6295466875  15.04277334375 19.94517334375  C 13.80672 18.1201066875  11.66005334375 17.2032  9.57866665625 16.73482665625  C 9.51242665625 16.7198933125  9.44608 16.7056  9.37973334375 16.69162665625  C 10.96832 15.3824  12.064 13.50656  12.54272 11.50485334375  C 13.12938665625 9.0519466875  12.86197334375 6.31008  11.58069334375 4.11338665625  C 10.46485334375 2.2  8.56405334375 0.82186665625  6.39136 0.38069334375  C 4.64448 0.0260266874999999  2.8384 0.23733334375  1.20352 0.93632  C 0.918079999999996 1.05845334375  0.857493343749997 1.47264  0.999466656249997 1.71477334375  C 1.07464426917375 1.84270387689274  1.19656566965616 1.93643955550896  1.33952 1.97621334375  C 1.50144 2.0208  1.63029334375 1.98208  1.77792 1.91893334375  C 1.64725334375 1.97472  1.78816 1.91509334375  1.80906665625 1.90656  C 1.85098665625 1.88949334375  1.89322665625 1.87317334375  1.93557334375 1.85674665625  C 2.37651736389345 1.6874134104973  2.83169096623738 1.55776158338779  3.29568 1.46933334375  C 3.38641802022373 1.45194971977318  3.47745426939513 1.43616061970521  3.56874665625 1.42197334375  C 3.59648 1.4176  3.62410665625 1.4138666875  3.65173334375 1.40992  C 3.64064 1.41216  3.7649066875 1.39594665625  3.78592 1.39370665625  C 4.41578665625 1.3232  5.05493334375 1.3301333125  5.68384 1.408  C 5.77714353599133 1.42150782241589  5.87017458092124 1.43683518841354  5.96288 1.45397334375  C 6.09909334375 1.47861334375  6.23445334375 1.50784  6.36917334375 1.54005334375  C 6.62457397831948 1.60143851261899  6.87652225852747 1.67638920443187  7.12394665625 1.76458665625  C 7.22090665625 1.7989333125  7.3168 1.8363733125  7.41216 1.87498665625  C 7.44245334375 1.88810665625  7.51349334375 1.9182933125  7.53632 1.92864  C 8.00519207778166 2.1402941965943  8.44965422375218 2.40231477331982  8.86186665625 2.71008  L 8.8784 2.72266665625  C 8.89664 2.7368533125  8.92778665625 2.7608533125  8.94144 2.77184  C 9.14232404004044 2.93283228865995  9.33438902186698 3.10452997564758  9.5168 3.28618665625  C 9.70080677664889 3.46950133638075  9.8749200218417 3.66248575477508  10.0384 3.86432  C 10.05749334375 3.88789334375  10.07626665625 3.91157334375  10.09514665625 3.93536  C 10.12992 3.98122665625  10.16416 4.02741334375  10.19808 4.07402665625  C 10.2786552792238 4.18556559749965  10.3562297410179 4.2992418905053  10.43072 4.41493334375  C 10.5759492309965 4.64102674551072  10.7094587698697 4.87443701852798  10.83072 5.11424  C 10.9039334958554 5.25902820158962  10.9727998405929 5.40597390637316  11.03722665625 5.55488  C 11.06592 5.624  11.09322665625 5.69397334375  11.12 5.76394665625  C 11.32618665625 6.3022933125  11.47338665625 6.8622933125  11.57205334375 7.42997334375  C 11.58432 7.50069334375  11.59552 7.57173334375  11.60618665625 7.64277334375  C 11.60874665625 7.65984  11.6110933125 7.67701334375  11.61354665625 7.69418665625  L 11.62005334375 7.74304  C 11.6394295420246 7.90151256887886  11.6550783008708 8.06041866895412  11.66698665625 8.21962665625  C 11.6914133125 8.5384533125  11.6994133125 8.85856  11.69493334375 9.17824  C 11.6897191133273 9.51571973773599  11.6678257306618 9.85273543827657  11.62933334375 10.18805334375  C 11.62496 10.2269866875  11.62005334375 10.26581334375  11.61525334375 10.30485334375  L 11.61397334375 10.3136  C 11.6027479555507 10.3920768645379  11.5905514584868 10.4704117524126  11.57738665625 10.54858665625  C 11.4962592706211 11.0348874193406  11.3787742291724 11.5144189426405  11.22592 11.98314665625  C 11.151188702537 12.2119616053194  11.0678223458728 12.437865580882  10.976 12.66037334375  C 10.7178385196277 13.2622745668191  10.3958162742815 13.8347267653307  10.01546665625 14.36789334375  C 9.97322665624999 14.4269866875  9.93013331249999 14.4852266875  9.88671999999999 14.54325334375  C 9.86480544766762 14.5715147885466  9.84276076564646 14.5996750875962  9.82058665624999 14.62773334375  C 9.7308378684369 14.739865538778  9.63829326898211 14.8497311269293  9.54303999999999 14.95722665625  C 9.34663477754642 15.1789277290886  9.13847791659265 15.3899331307413  8.91946665624999 15.58933334375  C 8.81528891768881 15.6840808272042  8.70865709067717 15.7760943479019  8.59967999999999 15.86528  C 8.58069334374999 15.88085334375  8.51146665624999 15.93536  8.48223999999999 15.95861334375  C 8.43978665624999 15.99072  8.39722665624999 16.02272  8.35423999999999 16.05408  C 8.1195610265326 16.2243411711627  7.87524298217469 16.3809041571465  7.62250665624999 16.52298665625  C 7.44863999999999 16.62122665625  7.34058665624999 16.81610665625  7.34058665624999 17.01429334375  C 7.34058665624999 17.24181334375  7.51199999999999 17.5290666875  7.75829334374999 17.56288  C 8.45045334374999 17.65792  9.13781334374999 17.78634665625  9.81386665624999 17.96298665625  C 10.11370665625 18.0411733125  10.41056 18.13056  10.704 18.23018665625  C 10.9013077633925 18.2975805103304  11.0967239199096 18.3703902878455  11.29002665625 18.44853334375  C 11.30048 18.45269334375  11.3106133125 18.4570666875  11.32106665625 18.46133334375  C 11.34346665625 18.4708266875  11.384 18.4877866875  11.40021334375 18.49482665625  C 11.86901334375 18.69898665625  12.32096 18.94250665625  12.74357334375 19.2304  C 12.83168 19.29045334375  12.91797334375 19.35306665625  13.00309334375 19.41738665625  C 13.0696109344456 19.4699751103178  13.1350121400583 19.523960444804  13.19925334375 19.57930665625  C 13.3644234226971 19.7212990001615  13.5213374074489 19.8726216468735  13.66922665625 20.03253334375  C 13.7377784228957 20.1066345038791  13.8041533353999 20.1827202154794  13.86826665625 20.26069334375  C 13.8832 20.27872  13.89738665625 20.29728  13.91210665625 20.31552  C 13.9307733125 20.34048  13.9742933125 20.39776  13.99008 20.41984  C 14.1626420011154 20.6605370588091  14.3134243083827 20.9161244960152  14.44064 21.18357334375  C 14.46026665625 21.22464  14.47882665625 21.26592  14.49717334375 21.30752  C 14.50304 21.32181334375  14.5089066875 21.336  14.51456 21.35029334375  C 14.586362154681 21.5322761267557  14.6475842778943 21.7182574621035  14.69792 21.90730665625  C 14.7484629224932 22.0970238585514  14.7884883332236 22.289387963435  14.81781334375 22.48352  L 14.82112 22.50592  C 14.838818206212 22.6532233504358  14.8510931681476 22.8011277503347  14.85792 22.94933334375  C 14.86826665625 23.16533334375  14.86762665625 23.38208  14.84874665625 23.59754665625  C 14.84704 23.61632  14.84234665625 23.6544  14.8384 23.6848  C 14.816809888482 23.8184944646769  14.7853641673261 23.9504096179719  14.74432 24.07946665625  C 14.73045334375 24.12362665625  14.71466665625 24.16704  14.69824 24.21045334375  C 14.69653334375 24.21397334375  14.69504 24.21749334375  14.69344 24.22122665625  C 14.6352218963669 24.3461302728084  14.5654797943278 24.4653310630886  14.48512 24.57728  L 14.47605334375 24.58837334375  C 14.41525334375 24.66176  14.34848 24.73024  14.27882665625 24.79541334375  C 14.24608 24.82592  14.21226665625 24.8551466875  14.17802665625 24.88373334375  L 14.16426665625 24.89482665625  C 14.0834382919078 24.9535189312717  13.999628587265 25.0079916834988  13.91317334375 25.05802665625  C 13.8104421174934 25.1175020563235  13.7047005932689 25.171618934151  13.59637334375 25.22016  C 13.58101334375 25.22581334375  13.48672 25.26474665625  13.45589334375 25.27626665625  C 12.99104 25.45034665625  12.5002666875 25.55146665625  12.01056 25.62602665625  C 11.98752 25.62954665625  11.91637334375 25.63946665625  11.87722665625 25.64490665625  C 11.8258133125 25.65152  11.77418665625 25.65802665625  11.72266665625 25.66410665625  C 11.568 25.68224  11.4130133125 25.69738665625  11.25802665625 25.71104  C 10.93728 25.73941334375  10.61578665625 25.75872  10.29429334375 25.77376  C 10.10133334375 25.78282665625  9.90826668749999 25.78965334375  9.71519999999999 25.79541334375  C 9.40522665624999 25.8048  9.14623999999999 26.0471466875  9.14623999999999 26.36437334375  C 9.14623999999999 26.66752  9.40501334374999 26.94272  9.71519999999999 26.93333334375  C 10.92330665625 26.8970666875  12.16864 26.83584  13.33888 26.50933334375  C 14.2272 26.26144  15.08458665625 25.80352  15.57226665625 24.99178665625  Z M 14.51861334375 21.35605334375  C 14.52533334375 21.3716266875  14.528 21.3783466875  14.51861334375 21.35605334375  Z M 14.82048 22.49813334375  C 14.80298665625 22.37365334375  14.81536 22.45653334375  14.82026665625 22.49642665625  L 14.82048 22.49813334375  Z M 14.17632 24.88586665625  C 14.24981334375 24.8280533125  14.20714665625 24.86250665625  14.17632 24.88586665625  Z M 14.46197334375 24.60874665625  C 14.44544 24.6306133125  14.4333866875 24.6456533125  14.46197334375 24.60874665625  Z " fill-rule="nonzero" fill="#ffffff" stroke="none" transform="matrix(1 0 0 1 495 273 )" />
  </g>
</svg>