<?xml version="1.0" encoding="utf-8"?>
<svg version="1.1" xmlns:xlink="http://www.w3.org/1999/xlink" width="1487px" height="295px" xmlns="http://www.w3.org/2000/svg">
  <g transform="matrix(1 0 0 1 -94 -880 )">
    <path d="M 95 890  A 9 9 0 0 1 104 881 L 1571 881  A 9 9 0 0 1 1580 890 L 1580 1165  A 9 9 0 0 1 1571 1174 L 104 1174  A 9 9 0 0 1 95 1165 L 95 890  Z " fill-rule="nonzero" fill="#ffffff" stroke="none" />
    <path d="M 94.5 890  A 9.5 9.5 0 0 1 104 880.5 L 1571 880.5  A 9.5 9.5 0 0 1 1580.5 890 L 1580.5 1165  A 9.5 9.5 0 0 1 1571 1174.5 L 104 1174.5  A 9.5 9.5 0 0 1 94.5 1165 L 94.5 890  Z " stroke-width="1" stroke="#797979" fill="none" stroke-opacity="0.490196078431373" />
  </g>
</svg>