<?xml version="1.0" encoding="utf-8"?>
<svg version="1.1" xmlns:xlink="http://www.w3.org/1999/xlink" width="77px" height="33px" xmlns="http://www.w3.org/2000/svg">
  <defs>
    <mask fill="white" id="clip5">
      <path d="M 0 24.5142857142857  L 0 8.48571428571428  C 0 3.73371428571429  2.47902439024393 0  5.63414634146341 0  L 41.7023139462153 0  L 47.0956848030012 0  L 71.3658536585366 0  C 74.5209756097561 0  77 3.73371428571429  77 8.48571428571428  L 77 24.5142857142857  C 77 29.2662857142857  74.5209756097561 33  71.3658536585366 33  L 5.63414634146341 33  C 2.47902439024393 33  0 29.2662857142857  0 24.5142857142857  Z " fill-rule="evenodd" />
    </mask>
  </defs>
  <g transform="matrix(1 0 0 1 -1319 -14 )">
    <path d="M 0 24.5142857142857  L 0 8.48571428571428  C 0 3.73371428571429  2.47902439024393 0  5.63414634146341 0  L 41.7023139462153 0  L 47.0956848030012 0  L 71.3658536585366 0  C 74.5209756097561 0  77 3.73371428571429  77 8.48571428571428  L 77 24.5142857142857  C 77 29.2662857142857  74.5209756097561 33  71.3658536585366 33  L 5.63414634146341 33  C 2.47902439024393 33  0 29.2662857142857  0 24.5142857142857  Z " fill-rule="nonzero" fill="#169bd5" stroke="none" fill-opacity="0" transform="matrix(1 0 0 1 1319 14 )" />
    <path d="M 0 24.5142857142857  L 0 8.48571428571428  C 0 3.73371428571429  2.47902439024393 0  5.63414634146341 0  L 41.7023139462153 0  L 47.0956848030012 0  L 71.3658536585366 0  C 74.5209756097561 0  77 3.73371428571429  77 8.48571428571428  L 77 24.5142857142857  C 77 29.2662857142857  74.5209756097561 33  71.3658536585366 33  L 5.63414634146341 33  C 2.47902439024393 33  0 29.2662857142857  0 24.5142857142857  Z " stroke-width="4" stroke="#ffffff" fill="none" transform="matrix(1 0 0 1 1319 14 )" mask="url(#clip5)" />
  </g>
</svg>