<?xml version="1.0" encoding="utf-8"?>
<svg version="1.1" xmlns:xlink="http://www.w3.org/1999/xlink" width="31px" height="31px" xmlns="http://www.w3.org/2000/svg">
  <g transform="matrix(1 0 0 1 -239 -945 )">
    <path d="M 254.5 945  C 263.18 945  270 951.82  270 960.5  C 270 969.18  263.18 976  254.5 976  C 245.82 976  239 969.18  239 960.5  C 239 951.82  245.82 945  254.5 945  Z " fill-rule="nonzero" fill="#ffffff" stroke="none" />
    <path d="M 254.5 945.5  C 262.9 945.5  269.5 952.1  269.5 960.5  C 269.5 968.9  262.9 975.5  254.5 975.5  C 246.1 975.5  239.5 968.9  239.5 960.5  C 239.5 952.1  246.1 945.5  254.5 945.5  Z " stroke-width="1" stroke="#797979" fill="none" />
  </g>
</svg>