<?xml version="1.0" encoding="utf-8"?>
<svg version="1.1" xmlns:xlink="http://www.w3.org/1999/xlink" width="74px" height="74px" xmlns="http://www.w3.org/2000/svg">
  <g transform="matrix(1 0 0 1 -667 -104 )">
    <path d="M 667 104  L 741 104  L 741 178  L 667 178  L 667 104  " fill-rule="nonzero" fill="#cccccc" stroke="none" />
    <path d="M 672 109  L 736 109  L 736 173  L 672 173  L 672 109  " fill-rule="nonzero" fill="#ffffff" stroke="none" />
    <path d="M 711.03 126.2  C 707.922 126.2  705.48 123.758  705.48 120.65  C 705.48 117.542  707.922 115.1  711.03 115.1  C 714.138 115.1  716.58 117.542  716.58 120.65  C 716.58 123.758  714.138 126.2  711.03 126.2  " fill-rule="nonzero" fill="#cccccc" stroke="none" />
    <path d="M 674 171  L 674 138  L 689 123  L 710 135  L 722 132  L 734 135  L 734 171  L 674 171  " fill-rule="nonzero" fill="#169bd5" stroke="none" />
  </g>
</svg>